<mxfile host="65bd71144e">
    <diagram id="vfX83TYHBZUvs_agMLWN" name="Page-1">
        <mxGraphModel dx="1643" dy="698" grid="1" gridSize="10" guides="1" tooltips="1" connect="1" arrows="1" fold="1" page="1" pageScale="1" pageWidth="850" pageHeight="1100" math="0" shadow="0">
            <root>
                <mxCell id="0"/>
                <mxCell id="1" parent="0"/>
                <mxCell id="56" value="&lt;span style=&quot;box-sizing: border-box; font-weight: 700; color: rgb(0, 0, 0); font-family: &amp;quot;Open Sans&amp;quot;, sans-serif; text-align: start; background-color: rgb(233, 236, 239);&quot;&gt;secrÃ©taire&amp;nbsp;&lt;/span&gt;" style="shape=umlActor;verticalLabelPosition=bottom;verticalAlign=top;html=1;outlineConnect=0;" vertex="1" parent="1">
                    <mxGeometry x="410" y="190" width="40" height="60" as="geometry"/>
                </mxCell>
                <mxCell id="57" value="" style="whiteSpace=wrap;html=1;aspect=fixed;" vertex="1" parent="1">
                    <mxGeometry x="520" y="110" width="1070" height="1070" as="geometry"/>
                </mxCell>
                <mxCell id="58" value="&lt;span style=&quot;box-sizing: border-box; font-weight: 700; color: rgb(0, 0, 0); font-family: &amp;quot;Open Sans&amp;quot;, sans-serif; text-align: start; background-color: rgb(233, 236, 239);&quot;&gt;directeur&lt;/span&gt;" style="shape=umlActor;verticalLabelPosition=bottom;verticalAlign=top;html=1;outlineConnect=0;" vertex="1" parent="1">
                    <mxGeometry x="415" y="370" width="35" height="60" as="geometry"/>
                </mxCell>
                <mxCell id="59" value="&lt;span style=&quot;box-sizing: border-box; font-weight: 700; color: rgb(0, 0, 0); font-family: &amp;quot;Open Sans&amp;quot;, sans-serif; text-align: start; background-color: rgb(233, 236, 239);&quot;&gt;l'administrateur&amp;nbsp;&lt;/span&gt;" style="shape=umlActor;verticalLabelPosition=bottom;verticalAlign=top;html=1;outlineConnect=0;" vertex="1" parent="1">
                    <mxGeometry x="412.5" y="595" width="40" height="65" as="geometry"/>
                </mxCell>
                <mxCell id="60" value="chef de project" style="shape=umlActor;verticalLabelPosition=bottom;verticalAlign=top;html=1;outlineConnect=0;" vertex="1" parent="1">
                    <mxGeometry x="420" y="750" width="35" height="60" as="geometry"/>
                </mxCell>
                <mxCell id="61" value="&lt;span style=&quot;box-sizing: border-box; font-weight: 700; color: rgb(0, 0, 0); font-family: &amp;quot;Open Sans&amp;quot;, sans-serif; text-align: start; text-wrap: wrap; background-color: rgb(233, 236, 239);&quot;&gt;comptable&amp;nbsp;&lt;/span&gt;" style="shape=umlActor;verticalLabelPosition=bottom;verticalAlign=top;html=1;outlineConnect=0;" vertex="1" parent="1">
                    <mxGeometry x="430" y="1070" width="35" height="60" as="geometry"/>
                </mxCell>
                <mxCell id="62" value="add/update Project" style="ellipse;whiteSpace=wrap;html=1;" vertex="1" parent="1">
                    <mxGeometry x="760" y="140" width="140" height="70" as="geometry"/>
                </mxCell>
                <mxCell id="63" value="add/update Organization" style="ellipse;whiteSpace=wrap;html=1;" vertex="1" parent="1">
                    <mxGeometry x="760" y="230" width="140" height="70" as="geometry"/>
                </mxCell>
                <mxCell id="64" value="search project" style="ellipse;whiteSpace=wrap;html=1;" vertex="1" parent="1">
                    <mxGeometry x="760" y="330" width="140" height="70" as="geometry"/>
                </mxCell>
                <mxCell id="65" value="modify project informations" style="ellipse;whiteSpace=wrap;html=1;" vertex="1" parent="1">
                    <mxGeometry x="760" y="460" width="140" height="70" as="geometry"/>
                </mxCell>
                <mxCell id="66" value="add/Update/delete&lt;div&gt;users&lt;/div&gt;" style="ellipse;whiteSpace=wrap;html=1;" vertex="1" parent="1">
                    <mxGeometry x="770" y="570" width="140" height="70" as="geometry"/>
                </mxCell>
                <mxCell id="67" value="break project into phases" style="ellipse;whiteSpace=wrap;html=1;" vertex="1" parent="1">
                    <mxGeometry x="770" y="670" width="170" height="80" as="geometry"/>
                </mxCell>
                <mxCell id="68" value="update phase deliverables" style="ellipse;whiteSpace=wrap;html=1;" vertex="1" parent="1">
                    <mxGeometry x="1090" y="675" width="140" height="70" as="geometry"/>
                </mxCell>
                <mxCell id="69" value="update building&amp;nbsp;&lt;div&gt;/payment status&lt;/div&gt;" style="ellipse;whiteSpace=wrap;html=1;" vertex="1" parent="1">
                    <mxGeometry x="639" y="850" width="140" height="70" as="geometry"/>
                </mxCell>
                <mxCell id="70" value="bill completed&amp;nbsp;&lt;div&gt;phases&lt;/div&gt;" style="ellipse;whiteSpace=wrap;html=1;" vertex="1" parent="1">
                    <mxGeometry x="900" y="860" width="140" height="70" as="geometry"/>
                </mxCell>
                <mxCell id="71" value="search by period" style="ellipse;whiteSpace=wrap;html=1;" vertex="1" parent="1">
                    <mxGeometry x="1180" y="880" width="140" height="70" as="geometry"/>
                </mxCell>
                <mxCell id="72" value="" style="endArrow=open;endFill=1;endSize=12;html=1;rounded=0;exitX=0.5;exitY=0.5;exitDx=0;exitDy=0;entryX=0;entryY=0.5;entryDx=0;entryDy=0;exitPerimeter=0;" edge="1" parent="1" source="56" target="63">
                    <mxGeometry width="160" relative="1" as="geometry">
                        <mxPoint x="600" y="440" as="sourcePoint"/>
                        <mxPoint x="760" y="440" as="targetPoint"/>
                    </mxGeometry>
                </mxCell>
                <mxCell id="73" value="" style="endArrow=open;endFill=1;endSize=12;html=1;rounded=0;exitX=1;exitY=0.3333333333333333;exitDx=0;exitDy=0;entryX=0;entryY=0.5;entryDx=0;entryDy=0;exitPerimeter=0;" edge="1" parent="1" source="56" target="62">
                    <mxGeometry width="160" relative="1" as="geometry">
                        <mxPoint x="440" y="230" as="sourcePoint"/>
                        <mxPoint x="650" y="305" as="targetPoint"/>
                    </mxGeometry>
                </mxCell>
                <mxCell id="74" value="" style="endArrow=open;endFill=1;endSize=12;html=1;rounded=0;exitX=1;exitY=1;exitDx=0;exitDy=0;entryX=0;entryY=0.5;entryDx=0;entryDy=0;exitPerimeter=0;" edge="1" parent="1" source="56" target="64">
                    <mxGeometry width="160" relative="1" as="geometry">
                        <mxPoint x="460" y="220" as="sourcePoint"/>
                        <mxPoint x="650" y="205" as="targetPoint"/>
                    </mxGeometry>
                </mxCell>
                <mxCell id="75" value="" style="endArrow=open;endFill=1;endSize=12;html=1;rounded=0;exitX=0.5;exitY=0.5;exitDx=0;exitDy=0;entryX=0.5;entryY=1;entryDx=0;entryDy=0;exitPerimeter=0;" edge="1" parent="1" source="58" target="64">
                    <mxGeometry width="160" relative="1" as="geometry">
                        <mxPoint x="460" y="260" as="sourcePoint"/>
                        <mxPoint x="649" y="405" as="targetPoint"/>
                    </mxGeometry>
                </mxCell>
                <mxCell id="76" value="" style="endArrow=open;endFill=1;endSize=12;html=1;rounded=0;exitX=1;exitY=1;exitDx=0;exitDy=0;entryX=0;entryY=0.5;entryDx=0;entryDy=0;exitPerimeter=0;" edge="1" parent="1" source="58" target="65">
                    <mxGeometry width="160" relative="1" as="geometry">
                        <mxPoint x="443" y="410" as="sourcePoint"/>
                        <mxPoint x="719" y="440" as="targetPoint"/>
                    </mxGeometry>
                </mxCell>
                <mxCell id="77" value="" style="endArrow=open;endFill=1;endSize=12;html=1;rounded=0;exitX=0.5;exitY=0.5;exitDx=0;exitDy=0;entryX=0;entryY=0.5;entryDx=0;entryDy=0;exitPerimeter=0;" edge="1" parent="1" source="59" target="66">
                    <mxGeometry width="160" relative="1" as="geometry">
                        <mxPoint x="460" y="440" as="sourcePoint"/>
                        <mxPoint x="649" y="515" as="targetPoint"/>
                    </mxGeometry>
                </mxCell>
                <mxCell id="78" value="" style="endArrow=open;endFill=1;endSize=12;html=1;rounded=0;exitX=0.5;exitY=0.5;exitDx=0;exitDy=0;entryX=0;entryY=0.5;entryDx=0;entryDy=0;exitPerimeter=0;" edge="1" parent="1" source="60" target="67">
                    <mxGeometry width="160" relative="1" as="geometry">
                        <mxPoint x="-417" y="1158" as="sourcePoint"/>
                        <mxPoint x="-220" y="1195" as="targetPoint"/>
                    </mxGeometry>
                </mxCell>
                <mxCell id="79" value="" style="endArrow=open;endFill=1;endSize=12;html=1;rounded=0;exitX=0.5;exitY=0.5;exitDx=0;exitDy=0;exitPerimeter=0;" edge="1" parent="1" source="60" target="68">
                    <mxGeometry width="160" relative="1" as="geometry">
                        <mxPoint x="448" y="790" as="sourcePoint"/>
                        <mxPoint x="810" y="805" as="targetPoint"/>
                        <Array as="points">
                            <mxPoint x="770" y="790"/>
                        </Array>
                    </mxGeometry>
                </mxCell>
                <mxCell id="80" value="" style="endArrow=open;endFill=1;endSize=12;html=1;rounded=0;exitX=0.5;exitY=0.5;exitDx=0;exitDy=0;entryX=0.5;entryY=1;entryDx=0;entryDy=0;exitPerimeter=0;" edge="1" parent="1" source="61" target="69">
                    <mxGeometry width="160" relative="1" as="geometry">
                        <mxPoint x="448" y="790" as="sourcePoint"/>
                        <mxPoint x="260" y="875" as="targetPoint"/>
                    </mxGeometry>
                </mxCell>
                <mxCell id="81" value="" style="endArrow=open;endFill=1;endSize=12;html=1;rounded=0;exitX=0;exitY=1;exitDx=0;exitDy=0;entryX=0.5;entryY=1;entryDx=0;entryDy=0;exitPerimeter=0;" edge="1" parent="1" source="61" target="70">
                    <mxGeometry width="160" relative="1" as="geometry">
                        <mxPoint x="458" y="1110" as="sourcePoint"/>
                        <mxPoint x="260" y="980" as="targetPoint"/>
                    </mxGeometry>
                </mxCell>
                <mxCell id="82" value="" style="endArrow=open;endFill=1;endSize=12;html=1;rounded=0;exitX=0.5;exitY=0.5;exitDx=0;exitDy=0;entryX=0;entryY=0.5;entryDx=0;entryDy=0;exitPerimeter=0;" edge="1" parent="1" source="61" target="71">
                    <mxGeometry width="160" relative="1" as="geometry">
                        <mxPoint x="440" y="1140" as="sourcePoint"/>
                        <mxPoint x="260" y="1085" as="targetPoint"/>
                    </mxGeometry>
                </mxCell>
            </root>
        </mxGraphModel>
    </diagram>
    <diagram id="W69Q3DgPFG7NwSh0VUcg" name="Page-2">
        <mxGraphModel dx="2465" dy="1048" grid="1" gridSize="10" guides="1" tooltips="1" connect="1" arrows="1" fold="1" page="1" pageScale="1" pageWidth="850" pageHeight="1100" math="0" shadow="0">
            <root>
                <mxCell id="0"/>
                <mxCell id="1" parent="0"/>
            </root>
        </mxGraphModel>
    </diagram>
</mxfile>